<svg width="317" height="91" viewBox="0 0 317 91" fill="none" xmlns="http://www.w3.org/2000/svg">
<path d="M138.721 20.2657H134.529V0.0930176H151.427V20.2657H147.366V3.76079H138.721V20.2657Z" fill="white"/>
<path d="M162.692 20.6586C160.465 20.6586 158.5 20.0037 157.059 18.5628C155.487 17.1219 154.701 15.288 154.701 13.0611C154.701 10.9652 155.356 9.13139 156.797 7.69046C158.238 6.24959 159.941 5.46362 162.168 5.46362C164.264 5.46362 165.967 6.24959 167.146 7.69046C168.455 9.13139 168.98 10.9652 168.98 13.0611V14.1091H158.631C158.893 15.026 159.417 15.812 160.203 16.3359C161.12 16.8599 162.168 17.1219 163.478 17.1219C165.05 17.1219 166.622 16.7289 168.063 15.812V19.0868C166.883 20.1347 165.05 20.6586 162.692 20.6586ZM158.762 11.6202H165.05C165.05 10.8343 164.657 10.0483 164.133 9.52437C163.609 9.00037 162.823 8.7384 162.037 8.7384C161.12 8.7384 160.334 9.00037 159.81 9.52437C159.155 10.0483 158.893 10.7033 158.762 11.6202Z" fill="white"/>
<path d="M180.9 5.46362C182.864 5.46362 184.436 6.24959 185.746 7.69046C187.056 9.13139 187.711 10.9652 187.711 13.0611C187.711 15.157 187.056 16.9909 185.746 18.4318C184.436 19.8727 182.864 20.6586 180.9 20.6586C178.935 20.6586 177.363 20.0037 176.183 18.5628V26.0292H172.123V5.85661H176.183V7.5595C177.363 6.24959 178.935 5.46362 180.9 5.46362ZM179.852 9.00038C179.065 9.00038 178.411 9.2624 177.755 9.65533C177.101 10.0483 176.577 10.5723 176.315 11.2273V15.026C176.707 15.681 177.101 16.205 177.755 16.5979C178.411 16.9909 179.065 17.1219 179.852 17.1219C181.03 17.1219 181.947 16.7289 182.602 15.9429C183.388 15.157 183.65 14.2401 183.65 13.0611C183.65 11.8822 183.257 10.9652 182.602 10.1793C181.947 9.39336 180.9 9.00038 179.852 9.00038Z" fill="white"/>
<path d="M197.798 20.6586C195.571 20.6586 193.606 20.0037 192.165 18.5628C190.593 17.1219 189.807 15.288 189.807 13.0611C189.807 10.9652 190.462 9.13139 191.903 7.69046C193.344 6.24959 195.047 5.46362 197.274 5.46362C199.37 5.46362 201.072 6.24959 202.251 7.69046C203.561 9.13139 204.085 10.9652 204.085 13.0611V14.1091H193.737C193.999 15.026 194.523 15.812 195.309 16.3359C196.226 16.8599 197.274 17.1219 198.584 17.1219C200.156 17.1219 201.728 16.7289 203.169 15.812V19.0868C201.989 20.1347 200.156 20.6586 197.798 20.6586ZM193.737 11.6202H200.024C200.024 10.8343 199.632 10.0483 199.108 9.52437C198.583 9.00037 197.798 8.7384 197.011 8.7384C196.095 8.7384 195.309 9.00037 194.785 9.52437C194.261 10.0483 193.868 10.7033 193.737 11.6202Z" fill="white"/>
<path d="M209.717 23.9334H205.788V16.8599H207.622C208.67 15.157 209.324 12.4062 209.324 8.73839V5.98755H221.376V16.9908H223.734V24.0644H220.066V20.3966H209.717V23.9334ZM211.813 16.8599H217.577V9.26238H213.123C213.123 12.2751 212.599 14.764 211.813 16.8599Z" fill="white"/>
<path d="M229.759 13.0611C229.759 14.2401 230.153 15.157 230.939 15.9429C231.724 16.7289 232.641 17.1219 233.82 17.1219C234.999 17.1219 235.916 16.7289 236.702 15.9429C237.488 15.157 237.881 14.2401 237.881 13.0611C237.881 11.8822 237.488 10.9652 236.702 10.1793C235.916 9.39336 234.999 9.00038 233.82 9.00038C232.641 9.00038 231.724 9.39336 230.939 10.1793C230.153 10.9652 229.759 11.8822 229.759 13.0611ZM225.699 13.0611C225.699 10.9652 226.485 9.13139 227.926 7.69046C229.367 6.24959 231.331 5.46362 233.689 5.46362C236.047 5.46362 237.881 6.24959 239.453 7.69046C240.894 9.13139 241.68 10.9652 241.68 13.0611C241.68 15.157 240.894 16.9909 239.453 18.4318C238.012 19.8727 236.047 20.6586 233.689 20.6586C231.331 20.6586 229.498 19.8727 227.926 18.4318C226.485 16.9909 225.699 15.157 225.699 13.0611Z" fill="white"/>
<path d="M253.206 20.2662H244.692V5.85718H252.813C254.254 5.85718 255.434 6.25016 256.219 6.90512C257.005 7.56008 257.398 8.47701 257.398 9.52495C257.398 10.9658 256.874 12.0138 255.695 12.5378C257.529 13.1927 258.446 14.3716 258.446 16.2055C258.446 17.3844 257.922 18.4324 257.005 19.0873C256.088 19.8733 254.909 20.2662 253.206 20.2662ZM248.753 14.2407V17.5154H252.159C253.599 17.5154 254.254 16.9914 254.254 15.9436C254.254 14.8956 253.599 14.3716 252.159 14.3716H248.753V14.2407ZM248.753 8.73897V11.6208H251.635C252.945 11.6208 253.599 11.0968 253.599 10.1799C253.599 9.26297 252.813 8.73897 251.504 8.73897H248.753Z" fill="white"/>
<path d="M280.191 20.2662H276.13V5.85718H280.191V20.2662ZM268.794 20.2662H261.59V5.85718H265.651V10.0489H268.532C270.366 10.0489 271.807 10.5729 272.855 11.4898C273.903 12.4067 274.427 13.5857 274.427 15.1576C274.427 16.5985 273.903 17.7774 272.986 18.8254C271.938 19.7423 270.628 20.2662 268.794 20.2662ZM265.651 13.0617V17.1225H268.008C268.794 17.1225 269.449 16.9914 269.842 16.5985C270.235 16.2055 270.497 15.8125 270.497 15.1576C270.497 14.5026 270.235 13.9786 269.842 13.7167C269.449 13.3237 268.794 13.1927 268.008 13.1927H265.651V13.0617Z" fill="white"/>
<path d="M291.326 20.6586C289.099 20.6586 287.134 20.0037 285.693 18.5628C284.121 17.1219 283.335 15.288 283.335 13.0611C283.335 10.9652 283.99 9.13139 285.431 7.69046C286.872 6.24959 288.575 5.46362 290.802 5.46362C292.898 5.46362 294.6 6.24959 295.78 7.69046C297.089 9.13139 297.613 10.9652 297.613 13.0611V14.1091H287.265C287.527 15.026 288.051 15.812 288.837 16.3359C289.754 16.8599 290.802 17.1219 292.111 17.1219C293.683 17.1219 295.256 16.7289 296.696 15.812V19.0868C295.517 20.1347 293.683 20.6586 291.326 20.6586ZM287.265 11.6202H293.552C293.552 10.8343 293.159 10.0483 292.635 9.52437C292.111 9.00037 291.326 8.7384 290.54 8.7384C289.623 8.7384 288.837 9.00037 288.313 9.52437C287.789 10.0483 287.396 10.7033 287.265 11.6202Z" fill="white"/>
<path d="M138.065 54.323H134.266V39.9143H138.327V48.4288L144.877 39.9143H148.676V54.323H144.614V45.8091L138.065 54.323Z" fill="white"/>
<path d="M156.665 54.323H152.604V39.9143H156.665V45.2851H162.56V39.9143H166.621V54.323H162.56V48.6905H156.665V54.323Z" fill="white"/>
<path d="M173.826 54.323H168.979L175.136 46.5947L169.635 39.9143H174.219L178.542 45.2851V39.9143H182.602V45.2851L186.925 39.9143H191.51L186.008 46.5947L192.296 54.323H187.318L182.602 48.1666V54.323H178.542V48.1666L173.826 54.323Z" fill="white"/>
<path d="M200.417 54.7166C198.19 54.7166 196.225 54.0618 194.784 52.6209C193.212 51.1799 192.427 49.3464 192.427 47.1192C192.427 45.0234 193.082 43.1893 194.523 41.7489C195.964 40.3079 197.666 39.5217 199.893 39.5217C201.989 39.5217 203.692 40.3079 204.871 41.7489C206.181 43.1893 206.705 45.0234 206.705 47.1192V48.1671H196.487C196.749 49.0841 197.273 49.8703 198.059 50.3942C198.976 50.9182 200.024 51.1799 201.334 51.1799C202.906 51.1799 204.478 50.7868 205.918 49.8703V53.1448C204.609 54.1927 202.775 54.7166 200.417 54.7166ZM196.487 45.6782H202.775C202.775 44.8926 202.382 44.1064 201.858 43.5824C201.334 43.0585 200.548 42.7968 199.762 42.7968C198.845 42.7968 198.059 43.0585 197.535 43.5824C196.881 44.1064 196.618 44.7612 196.487 45.6782Z" fill="white"/>
<path d="M213.91 54.323H209.849V39.9143H213.91V45.2851H219.804V39.9143H223.865V54.323H219.804V48.6905H213.91V54.323Z" fill="white"/>
<path d="M234.999 54.7166C232.772 54.7166 230.807 54.0618 229.366 52.6209C227.794 51.1799 227.008 49.3464 227.008 47.1192C227.008 45.0234 227.664 43.1893 229.105 41.7489C230.545 40.3079 232.248 39.5217 234.475 39.5217C236.571 39.5217 238.274 40.3079 239.453 41.7489C240.763 43.1893 241.287 45.0234 241.287 47.1192V48.1671H230.938C231.2 49.0841 231.724 49.8703 232.51 50.3942C233.427 50.9182 234.475 51.1799 235.785 51.1799C237.357 51.1799 238.929 50.7868 240.37 49.8703V53.1448C239.191 54.1927 237.357 54.7166 234.999 54.7166ZM231.069 45.6782H237.357C237.357 44.8926 236.964 44.1064 236.44 43.5824C235.916 43.0585 235.13 42.7968 234.344 42.7968C233.427 42.7968 232.641 43.0585 232.117 43.5824C231.462 44.1064 231.069 44.7612 231.069 45.6782Z" fill="white"/>
<path d="M253.206 39.5217C255.171 39.5217 256.743 40.3079 258.053 41.7489C259.363 43.1893 260.018 45.0234 260.018 47.1192C260.018 49.215 259.363 51.049 258.053 52.49C256.743 53.931 255.171 54.5858 253.206 54.5858C251.241 54.5858 249.67 53.931 248.491 52.49V59.9566H244.43V39.9148H248.491V41.6175C249.539 40.3079 251.111 39.5217 253.206 39.5217ZM252.028 43.0585C251.241 43.0585 250.587 43.3207 249.931 43.7133C249.277 44.1064 248.753 44.6303 248.491 45.2857V49.0841C248.883 49.7389 249.277 50.2628 249.931 50.6559C250.587 51.049 251.241 51.1799 252.028 51.1799C253.206 51.1799 254.123 50.7868 254.778 50.0011C255.564 49.215 255.826 48.2985 255.826 47.1192C255.826 45.9404 255.433 45.0234 254.778 44.2372C254.123 43.4516 253.206 43.0585 252.028 43.0585Z" fill="white"/>
<path d="M267.092 54.323H263.031V39.9143H267.092V45.2851H272.986V39.9143H277.047V54.323H272.986V48.6905H267.092V54.323Z" fill="white"/>
<path d="M299.709 54.323H295.648V39.9143H299.709V54.323ZM288.181 54.323H280.977V39.9143H285.038V44.1058H287.92C289.753 44.1058 291.194 44.6298 292.242 45.5468C293.29 46.4639 293.814 47.6426 293.814 49.2144C293.814 50.6554 293.29 51.8347 292.373 52.8826C291.456 53.7991 290.015 54.323 288.181 54.323ZM285.038 47.1187V51.1794H287.396C288.181 51.1794 288.836 51.0485 289.229 50.6554C289.622 50.2623 289.885 49.8698 289.885 49.2144C289.885 48.5596 289.622 48.0357 289.229 47.7735C288.836 47.3809 288.181 47.2495 287.396 47.2495H285.038V47.1187Z" fill="white"/>
<path d="M310.712 54.7166C308.486 54.7166 306.521 54.0618 305.08 52.6209C303.639 51.1799 302.722 49.3464 302.722 47.1192C302.722 45.0234 303.377 43.1893 304.818 41.7489C306.259 40.3079 307.962 39.5217 310.188 39.5217C312.285 39.5217 313.987 40.3079 315.166 41.7489C316.476 43.1893 317 45.0234 317 47.1192V48.1671H306.651C306.914 49.0841 307.438 49.8703 308.224 50.3942C309.14 50.9182 310.188 51.1799 311.498 51.1799C313.07 51.1799 314.642 50.7868 316.083 49.8703V53.1448C314.904 54.1927 313.07 54.7166 310.712 54.7166ZM306.783 45.6782H313.07C313.07 44.8926 312.677 44.1064 312.153 43.5824C311.629 43.0585 310.844 42.7968 310.057 42.7968C309.14 42.7968 308.355 43.0585 307.831 43.5824C307.175 44.1064 306.783 44.7612 306.783 45.6782Z" fill="white"/>
<path d="M155.094 88.3819H134.266V73.9731H138.327V84.9765H142.65V73.9731H146.579V84.9765H151.033V73.9731H154.963V88.3819H155.094Z" fill="white"/>
<path d="M163.084 88.3819H159.024V73.9731H163.084V79.2126L168.062 73.9731H173.04L166.752 80.5227L173.956 88.3819H168.717L163.084 82.2254V88.3819Z" fill="white"/>
<path d="M178.279 81.1763C178.279 82.355 178.672 83.2721 179.459 84.0583C180.244 84.8439 181.161 85.237 182.34 85.237C183.519 85.237 184.436 84.8439 185.222 84.0583C186.008 83.2721 186.401 82.355 186.401 81.1763C186.401 79.9976 186.008 79.0805 185.222 78.2943C184.436 77.5087 183.519 77.1156 182.34 77.1156C181.161 77.1156 180.244 77.5087 179.459 78.2943C178.672 79.0805 178.279 79.9976 178.279 81.1763ZM174.349 81.1763C174.349 79.0805 175.136 77.2465 176.577 75.8055C178.018 74.3645 179.982 73.5789 182.34 73.5789C184.698 73.5789 186.532 74.3645 188.104 75.8055C189.545 77.2465 190.33 79.0805 190.33 81.1763C190.33 83.2721 189.545 85.1062 188.104 86.5471C186.663 87.9876 184.698 88.7738 182.34 88.7738C179.982 88.7738 178.148 87.9876 176.577 86.5471C175.005 85.1062 174.349 83.2721 174.349 81.1763Z" fill="white"/>
<path d="M203.037 77.378H198.583V79.343C198.452 81.4387 198.321 83.142 197.928 84.4515C197.535 85.7617 197.011 86.6787 196.225 87.4643C195.439 88.1191 194.391 88.5122 193.082 88.5122C192.426 88.5122 191.902 88.3814 191.51 88.2505V84.9755C191.771 85.1069 192.034 85.1069 192.295 85.1069C193.212 85.1069 193.867 84.4515 194.129 83.2728C194.391 82.2249 194.523 80.5217 194.653 78.2951L194.784 74.1035H207.229V88.5122H203.037V77.378Z" fill="white"/>
<path d="M229.76 88.3819H225.699V73.9731H229.76V88.3819ZM218.233 88.3819H211.028V73.9731H215.089V78.1647H217.97C219.805 78.1647 221.245 78.6886 222.293 79.6057C223.341 80.5227 223.865 81.7014 223.865 83.2733C223.865 84.7143 223.341 85.893 222.424 86.9409C221.507 87.8579 220.067 88.3819 218.233 88.3819ZM215.089 81.1775V85.2382H217.446C218.233 85.2382 218.887 85.1074 219.281 84.7143C219.674 84.3212 219.935 83.9281 219.935 83.2733C219.935 82.6185 219.674 82.0945 219.281 81.8323C218.887 81.4397 218.233 81.3084 217.446 81.3084H215.089V81.1775Z" fill="white"/>
<path d="M25.5435 90.9999C28.7987 90.9999 31.4377 88.3609 31.4377 85.1052C31.4377 81.85 28.7987 79.2109 25.5435 79.2109C22.2878 79.2109 19.6487 81.85 19.6487 85.1052C19.6487 88.3609 22.2878 90.9999 25.5435 90.9999Z" fill="white" fill-opacity="0.4"/>
<path d="M45.1917 12.4057C48.4474 12.4057 51.0864 9.76658 51.0864 6.51106C51.0864 3.25555 48.4474 0.616455 45.1917 0.616455C41.9359 0.616455 39.2969 3.25555 39.2969 6.51106C39.2969 9.76658 41.9359 12.4057 45.1917 12.4057Z" fill="white" fill-opacity="0.4"/>
<path d="M45.1917 32.0539C48.4474 32.0539 51.0864 29.4148 51.0864 26.1591C51.0864 22.9037 48.4474 20.2646 45.1917 20.2646C41.9359 20.2646 39.2969 22.9037 39.2969 26.1591C39.2969 29.4148 41.9359 32.0539 45.1917 32.0539Z" fill="white" fill-opacity="0.4"/>
<path d="M45.1917 71.352C48.4474 71.352 51.0864 68.7129 51.0864 65.4578C51.0864 62.202 48.4474 59.563 45.1917 59.563C41.9359 59.563 39.2969 62.202 39.2969 65.4578C39.2969 68.7129 41.9359 71.352 45.1917 71.352Z" fill="white" fill-opacity="0.4"/>
<path d="M45.1917 90.9999C48.4474 90.9999 51.0864 88.3609 51.0864 85.1052C51.0864 81.85 48.4474 79.2109 45.1917 79.2109C41.9359 79.2109 39.2969 81.85 39.2969 85.1052C39.2969 88.3609 41.9359 90.9999 45.1917 90.9999Z" fill="white" fill-opacity="0.4"/>
<path d="M64.8403 12.4057C68.096 12.4057 70.735 9.76658 70.735 6.51106C70.735 3.25555 68.096 0.616455 64.8403 0.616455C61.5851 0.616455 58.946 3.25555 58.946 6.51106C58.946 9.76658 61.5851 12.4057 64.8403 12.4057Z" fill="white" fill-opacity="0.4"/>
<path d="M5.89461 12.4064C9.15012 12.4064 11.7892 9.76731 11.7892 6.5118C11.7892 3.25628 9.15012 0.617188 5.89461 0.617188C2.63909 0.617188 0 3.25628 0 6.5118C0 9.76731 2.63909 12.4064 5.89461 12.4064Z" fill="white"/>
<path d="M5.89461 32.0539C9.15012 32.0539 11.7892 29.4148 11.7892 26.1591C11.7892 22.9038 9.15012 20.2646 5.89461 20.2646C2.63909 20.2646 0 22.9038 0 26.1591C0 29.4148 2.63909 32.0539 5.89461 32.0539Z" fill="white"/>
<path d="M5.89461 51.7033C9.15012 51.7033 11.7892 49.0643 11.7892 45.8085C11.7892 42.5533 9.15012 39.9143 5.89461 39.9143C2.63909 39.9143 0 42.5533 0 45.8085C0 49.0643 2.63909 51.7033 5.89461 51.7033Z" fill="white"/>
<path d="M5.89461 71.352C9.15012 71.352 11.7892 68.7129 11.7892 65.4578C11.7892 62.202 9.15012 59.563 5.89461 59.563C2.63909 59.563 0 62.202 0 65.4578C0 68.7129 2.63909 71.352 5.89461 71.352Z" fill="white"/>
<path d="M5.89461 90.9999C9.15012 90.9999 11.7892 88.3609 11.7892 85.1052C11.7892 81.85 9.15012 79.2109 5.89461 79.2109C2.63909 79.2109 0 81.85 0 85.1052C0 88.3609 2.63909 90.9999 5.89461 90.9999Z" fill="white"/>
<path d="M25.5435 12.4057C28.7992 12.4057 31.4383 9.76658 31.4383 6.51106C31.4383 3.25555 28.7992 0.616455 25.5435 0.616455C22.288 0.616455 19.6489 3.25555 19.6489 6.51106C19.6489 9.76658 22.288 12.4057 25.5435 12.4057Z" fill="white"/>
<path d="M25.5435 32.0539C28.7992 32.0539 31.4383 29.4148 31.4383 26.1591C31.4383 22.9038 28.7992 20.2646 25.5435 20.2646C22.288 20.2646 19.6489 22.9038 19.6489 26.1591C19.6489 29.4148 22.288 32.0539 25.5435 32.0539Z" fill="white"/>
<path d="M25.5435 51.7033C28.7992 51.7033 31.4383 49.0643 31.4383 45.8085C31.4383 42.5533 28.7992 39.9143 25.5435 39.9143C22.288 39.9143 19.6489 42.5533 19.6489 45.8085C19.6489 49.0643 22.288 51.7033 25.5435 51.7033Z" fill="white"/>
<path d="M25.5435 71.352C28.7992 71.352 31.4383 68.7129 31.4383 65.4578C31.4383 62.202 28.7992 59.563 25.5435 59.563C22.288 59.563 19.6489 62.202 19.6489 65.4578C19.6489 68.7129 22.288 71.352 25.5435 71.352Z" fill="white"/>
<path d="M45.1916 51.7033C48.4473 51.7033 51.0864 49.0643 51.0864 45.8085C51.0864 42.5533 48.4473 39.9143 45.1916 39.9143C41.9364 39.9143 39.2974 42.5533 39.2974 45.8085C39.2974 49.0643 41.9364 51.7033 45.1916 51.7033Z" fill="white"/>
<path d="M64.8408 32.0539C68.096 32.0539 70.7356 29.4148 70.7356 26.1591C70.7356 22.9038 68.096 20.2646 64.8408 20.2646C61.5851 20.2646 58.946 22.9038 58.946 26.1591C58.946 29.4148 61.5851 32.0539 64.8408 32.0539Z" fill="white"/>
<path d="M64.8408 51.7033C68.096 51.7033 70.7356 49.0643 70.7356 45.8085C70.7356 42.5533 68.096 39.9143 64.8408 39.9143C61.5851 39.9143 58.946 42.5533 58.946 45.8085C58.946 49.0643 61.5851 51.7033 64.8408 51.7033Z" fill="white"/>
<path d="M64.8408 71.352C68.096 71.352 70.7356 68.7129 70.7356 65.4578C70.7356 62.202 68.096 59.563 64.8408 59.563C61.5851 59.563 58.946 62.202 58.946 65.4578C58.946 68.7129 61.5851 71.352 64.8408 71.352Z" fill="white"/>
<path d="M64.8408 90.9999C68.096 90.9999 70.7356 88.3609 70.7356 85.1052C70.7356 81.85 68.096 79.2109 64.8408 79.2109C61.5851 79.2109 58.946 81.85 58.946 85.1052C58.946 88.3609 61.5851 90.9999 64.8408 90.9999Z" fill="white"/>
<path d="M84.4895 12.4057C87.7452 12.4057 90.3843 9.76658 90.3843 6.51106C90.3843 3.25555 87.7452 0.616455 84.4895 0.616455C81.2343 0.616455 78.5947 3.25555 78.5947 6.51106C78.5947 9.76658 81.2343 12.4057 84.4895 12.4057Z" fill="white"/>
<path d="M84.4895 32.0539C87.7452 32.0539 90.3843 29.4148 90.3843 26.1591C90.3843 22.9038 87.7452 20.2646 84.4895 20.2646C81.2343 20.2646 78.5947 22.9038 78.5947 26.1591C78.5947 29.4148 81.2343 32.0539 84.4895 32.0539Z" fill="white"/>
<path d="M84.4895 51.7033C87.7452 51.7033 90.3843 49.0643 90.3843 45.8085C90.3843 42.5533 87.7452 39.9143 84.4895 39.9143C81.2343 39.9143 78.5947 42.5533 78.5947 45.8085C78.5947 49.0643 81.2343 51.7033 84.4895 51.7033Z" fill="white"/>
<path d="M84.4895 71.352C87.7452 71.352 90.3843 68.7129 90.3843 65.4578C90.3843 62.202 87.7452 59.563 84.4895 59.563C81.2343 59.563 78.5947 62.202 78.5947 65.4578C78.5947 68.7129 81.2343 71.352 84.4895 71.352Z" fill="white"/>
<path d="M84.4895 90.9999C87.7452 90.9999 90.3843 88.3609 90.3843 85.1052C90.3843 81.85 87.7452 79.2109 84.4895 79.2109C81.2343 79.2109 78.5947 81.85 78.5947 85.1052C78.5947 88.3609 81.2343 90.9999 84.4895 90.9999Z" fill="white"/>
</svg>
